<svg xmlns="http://www.w3.org/2000/svg" viewBox="0 0 128 128">
  <defs>
    <linearGradient id="grad" x1="0" y1="0" x2="1" y2="1">
      <stop offset="0%" stop-color="#2d65d8" />
      <stop offset="100%" stop-color="#61b7ff" />
    </linearGradient>
    <filter id="shadow" x="-20%" y="-20%" width="140%" height="140%">
      <feDropShadow dx="0" dy="4" stdDeviation="6" flood-color="#0b2f70" flood-opacity="0.18" />
    </filter>
  </defs>
  <rect x="8" y="8" width="112" height="112" rx="28" fill="url(#grad)" filter="url(#shadow)" />
  <path d="M36 42h56c5.5 0 10 4.5 10 10v34c0 5.5-4.5 10-10 10H36c-5.5 0-10-4.5-10-10V52c0-5.5 4.5-10 10-10z" fill="#ffffff" opacity="0.14" />
  <path d="M44 54h40v28H44z" fill="none" stroke="#fff" stroke-width="7" stroke-linecap="round" stroke-linejoin="round" />
  <path d="M42 70h36M42 58h32M42 82h24" stroke="#fff" stroke-width="6" stroke-linecap="round" />
  <path d="M40 44l10-12h30l10 12" fill="none" stroke="#fff" stroke-width="6" stroke-linecap="round" stroke-linejoin="round" />
  <text x="64" y="118" font-family="Segoe UI, Arial, sans-serif" font-size="12" font-weight="700" fill="#fff" text-anchor="middle">HANPA</text>
</svg>
